<?xml version="1.0"?><svg data-name="Layer 1" id="Layer_1" viewBox="0 0 512 512" xmlns="http://www.w3.org/2000/svg" xmlns:xlink="http://www.w3.org/1999/xlink"><defs><style>.cls-1{fill:url(#linear-gradient);}.cls-2{fill:url(#linear-gradient-2);}.cls-3{fill:url(#linear-gradient-3);}.cls-4{fill:url(#linear-gradient-4);}.cls-5{fill:url(#linear-gradient-5);}.cls-6{fill:url(#linear-gradient-6);}</style><linearGradient gradientUnits="userSpaceOnUse" id="linear-gradient" x1="1" x2="486.795" y1="511" y2="25.205"><stop offset="0" stop-color="#d1a104"/><stop offset="0.999" stop-color="#ffdf00"/></linearGradient><linearGradient gradientUnits="userSpaceOnUse" id="linear-gradient-2" x1="134.27" x2="335.338" y1="364.835" y2="163.768"><stop offset="0" stop-color="#301515"/><stop offset="0.999" stop-color="#5c2627"/></linearGradient><linearGradient gradientUnits="userSpaceOnUse" id="linear-gradient-3" x1="127.525" x2="279.356" y1="281.978" y2="130.147"><stop offset="0" stop-color="#e4e1dd"/><stop offset="1" stop-color="#fcfaf7"/></linearGradient><linearGradient id="linear-gradient-4" x1="187.199" x2="339.03" xlink:href="#linear-gradient-3" y1="341.652" y2="189.821"/><linearGradient id="linear-gradient-5" x1="163.707" x2="315.538" xlink:href="#linear-gradient-3" y1="318.161" y2="166.329"/><linearGradient id="linear-gradient-6" x1="213.361" x2="365.192" xlink:href="#linear-gradient-3" y1="367.814" y2="215.983"/></defs><title/><path class="cls-1" d="M256,0C114.615,0,0,114.615,0,256S114.615,512,256,512,512,397.385,512,256,397.385,0,256,0Z"/><path class="cls-2" d="M256,127.277c-81,0-146.666,51.858-146.666,115.829,0,41.138,27.159,77.264,68.087,97.814l-13.779,52.516a3.674,3.674,0,0,0,5.663,3.94l57.987-40.666A185.434,185.434,0,0,0,256,358.934c81,0,146.666-51.858,146.666-115.828S337,127.277,256,127.277Z"/><path class="cls-3" d="M196,223.209a6.971,6.971,0,0,0,0-13.941H153.423a6.971,6.971,0,0,0,0,13.941h14.315v51.427a6.971,6.971,0,0,0,13.941,0V223.209Z"/><path class="cls-4" d="M297.1,267.065H277.3V216.239a6.97,6.97,0,1,0-13.94,0v56.37a8.406,8.406,0,0,0,8.4,8.4H297.1a6.97,6.97,0,1,0,0-13.94Z"/><path class="cls-5" d="M235.178,216.211a10.855,10.855,0,0,0-20.323,0L193.93,272.2a6.971,6.971,0,0,0,13.059,4.88l3.341-10.085h28.046a6.557,6.557,0,0,0,1.285-.128l3.383,10.213A6.97,6.97,0,1,0,256.1,272.2Zm-20.555,37.821,10.394-31.371,10.393,31.371Z"/><path class="cls-6" d="M360.922,269.639l-21.961-28.145L359.6,221.549a6.873,6.873,0,0,0-9.553-9.883L324.31,238.429v-22.19a7.363,7.363,0,1,0-14.726,0v58.4a7.363,7.363,0,0,0,14.726,0V255.655l4.724-4.565,20.433,27.487a7.265,7.265,0,1,0,11.455-8.938Z"/></svg>